<?xml version="1.0" encoding="utf-8"?>
<!-- Generator: Adobe Illustrator 23.0.3, SVG Export Plug-In . SVG Version: 6.00 Build 0)  -->
<svg version="1.1" id="Layer_1" xmlns="http://www.w3.org/2000/svg" xmlns:xlink="http://www.w3.org/1999/xlink" x="0px" y="0px"
	 viewBox="0 0 78.8 17.2" style="enable-background:new 0 0 78.8 17.2;" xml:space="preserve">
<path d="M9,6.4h2v10.5H9v-1.2c-1,0.8-2.2,1.5-3.5,1.5c-1.5,0-2.9-0.6-3.9-1.6c-1-1.1-1.6-2.4-1.6-3.9s0.6-2.9,1.6-3.9
	c1.1-1,2.4-1.6,3.9-1.6c1.3,0,2.6,0.6,3.5,1.4V6.4z M9,11.7c0-2-1.6-3.6-3.5-3.6S2,9.7,2,11.7s1.6,3.6,3.5,3.6S9,13.6,9,11.7z"/>
<path d="M15.8,7.5c0.7-0.7,2.6-1.3,3.8-1.3l-0.5,2c-1.8,0-3.4,1.4-3.4,3.2V17h-2V6.4h2v1.1H15.8z"/>
<path d="M30.4,14.9c-0.2,0.2-0.4,0.5-0.6,0.7c-1,1-2.4,1.6-3.9,1.6S23,16.6,22,15.6c-1-1.1-1.6-2.4-1.6-3.9S21,8.8,22,7.8
	s2.4-1.6,3.9-1.6s2.9,0.6,3.9,1.6C30,8,30.2,8.2,30.4,8.4l-1.6,1.2c-0.6-0.9-1.7-1.5-2.9-1.5c-2,0-3.5,1.6-3.5,3.6s1.6,3.6,3.5,3.6
	c1.2,0,2.2-0.6,2.9-1.5L30.4,14.9z"/>
<path d="M42.3,11.3V17h-2v-5.7c0-1.7-1.4-3.2-3.1-3.2s-3.1,1.4-3.1,3.2V17h-2V0h2v7.4c0.9-0.7,2-1.2,3.1-1.2c1.4,0,2.6,0.5,3.6,1.5
	C41.8,8.6,42.3,9.9,42.3,11.3z"/>
<path d="M44.9,3.4c0-0.7,0.6-1.3,1.3-1.3c0.7,0,1.3,0.6,1.3,1.3s-0.6,1.3-1.3,1.3S44.9,4.1,44.9,3.4z M45.2,6.4h2v10.5h-2V6.4z"/>
<path d="M51.3,13.4V8.2h-1.6V6.3h1.6V2.2h2v4.1h3.3v1.9h-3.2v5.1c0,0.9,0.7,1.7,1.6,1.7h1.8l0.5,1.9H55
	C52.9,16.9,51.3,15.4,51.3,13.4z"/>
<path d="M58.9,12.4v-6h2v6c0,1.5,1.3,2.8,2.9,2.8s2.9-1.3,2.9-2.8v-6h2v6c0,1.3-0.5,2.5-1.4,3.4c-0.9,0.9-2.1,1.4-3.4,1.4
	s-2.5-0.5-3.5-1.4C59.4,14.9,58.9,13.7,58.9,12.4z"/>
<path d="M78.8,13.8c0,0.6-0.2,1.2-0.5,1.7c-0.3,0.5-0.8,0.9-1.4,1.2s-1.2,0.4-1.9,0.4c-0.4,0-0.7,0-1.1-0.1
	c-1.2-0.2-2.2-0.7-3.2-1.5l1.2-1.4c1.2,1,2.3,1.2,2.9,1.2c0.4,0,0.9-0.1,1.2-0.3c0.3-0.1,0.8-0.5,0.8-1.2s-0.6-1.2-2-1.4
	c-0.1,0-1.8-0.3-2.5-0.7c-1-0.6-1.5-1.4-1.5-2.5c0-0.6,0.2-1.1,0.5-1.6c0.3-0.4,0.7-0.7,1.3-1c0.6-0.3,1.2-0.4,1.8-0.4
	c0.3,0,0.5,0,0.8,0c1,0.2,2,0.6,2.8,1.3l-1.2,1.3c-1-0.8-1.9-0.9-2.4-0.9c-0.4,0-0.8,0.1-1.1,0.2c-0.5,0.2-0.8,0.6-0.8,1.1
	c0,0.7,0.6,1.1,2,1.4c0,0,1.9,0.4,2.4,0.7c0.6,0.3,0.9,0.6,1.1,0.9C78.6,12.7,78.8,13.2,78.8,13.8z"/>
</svg>
